<svg id="Background" xmlns="http://www.w3.org/2000/svg" xmlns:xlink="http://www.w3.org/1999/xlink" width="1920" height="1080" viewBox="0 0 1920 1080">
  <defs>
    <clipPath id="clip-path">
      <rect id="Rectangle_1" data-name="Rectangle 1" width="1920" height="1080" fill="none"/>
    </clipPath>
    <clipPath id="clip-path-2">
      <rect id="Rectangle_2" data-name="Rectangle 2" width="47.396" height="73.012" fill="none"/>
    </clipPath>
  </defs>
  <g id="Group_1" data-name="Group 1" clip-path="url(#clip-path)">
    <path id="Path_1" data-name="Path 1" d="M1409.909,0H0V603.644c123.232-4.631,246.7-.078,368.7,19.281,160.912,25.542,319.456,77.4,462.331,164.087,2.283,1.392,4.6,2.707,6.88,4.111,76.469,47.165,149.019,104.59,229.088,142.1,68.837-34.905,136.571-72.8,204.123-110.738,101.547-57.03,204.075-114.687,314.352-145.206C1694.517,647.1,1807.3,644.47,1920,649.334V0Z" fill="#dcb9aa"/>
    <path id="Path_2" data-name="Path 2" d="M837.915,289.9c-2.277-1.4-4.6-2.724-6.885-4.111C688.155,199.1,529.616,147.245,368.7,121.7,246.7,102.344,123.232,97.791,0,102.422V371.69c105.259,4.577,210.9,12.714,311.509,46.7,116.885,39.482,222.544,112.3,336.811,160.389H679.5c68.24-18.062,135.957-38.323,202.331-63.6,63.024-24,124.523-52.435,185.163-83.182-80.064-37.51-152.619-94.934-229.083-142.1" transform="translate(0 501.222)" fill="#eb9b78"/>
    <path id="Path_3" data-name="Path 3" d="M0,146.1V353.181H648.32C534.053,305.1,428.4,232.28,311.509,192.792,210.907,158.808,105.259,150.67,0,146.1" transform="translate(0 726.819)" fill="#b95f46"/>
    <path id="Path_4" data-name="Path 4" d="M1033.376,138.226C923.1,168.745,820.571,226.4,719.024,283.432c-67.547,37.94-135.28,75.839-204.123,110.744-60.64,30.747-122.139,59.181-185.163,83.182-66.373,25.274-134.091,45.534-202.331,63.59H715.141c85.589-55.01,165.707-120.536,252.48-173.246,41.573-25.256,85.232-47.733,131.824-56.8,51.712-10.056,105.083-3.226,156.933-12.332,38.251-6.716,74.811-21.934,111.52-35.736V110.287c-112.693-4.863-225.483-2.241-334.523,27.938" transform="translate(552.101 539.052)" fill="#aaaf96"/>
    <path id="Path_5" data-name="Path 5" d="M621.912,182.279c-46.592,9.064-90.251,31.541-131.824,56.8-86.773,52.71-166.891,118.236-252.48,173.246H890.365V134.211c-36.709,13.8-73.269,29.02-111.52,35.736-51.851,9.1-105.221,2.271-156.933,12.332" transform="translate(1029.635 667.678)" fill="#50553c"/>
  </g>
  <g id="moon" transform="translate(1537.604 466.989)">
    <g id="Group_2" data-name="Group 2" transform="translate(0 0)" clip-path="url(#clip-path-2)">
      <path id="Path_6" data-name="Path 6" d="M31.123,36.5A36.368,36.368,0,0,1,46,7.144,3.5,3.5,0,0,0,44.73.951a36.5,36.5,0,1,0-8.222,72.056,35.708,35.708,0,0,0,8.234-.955A3.494,3.494,0,0,0,46,65.871,36.392,36.392,0,0,1,31.123,36.5" transform="translate(0.001 0.001)" fill="#eb9b78"/>
    </g>
  </g>
</svg>
