<svg xmlns="http://www.w3.org/2000/svg" xmlns:xlink="http://www.w3.org/1999/xlink" width="234" height="75.355" viewBox="0 0 234 75.355">
  <defs>
    <clipPath id="clip-path">
      <rect id="Rectangle_4" data-name="Rectangle 4" width="234" height="75.355" fill="none"/>
    </clipPath>
  </defs>
  <g id="Logo" transform="translate(0 0)">
    <g id="Group_3" data-name="Group 3" transform="translate(0 0)" clip-path="url(#clip-path)">
      <path id="Path_7" data-name="Path 7" d="M216.193,23.111a47.781,47.781,0,0,1-15.7-2.868A139.941,139.941,0,0,1,186.009,13.9a125.226,125.226,0,0,0-15.5-6.657A61.68,61.68,0,0,0,142.05,4.976c-6.513,1.019-13,3.127-19.28,5.166-8.914,2.894-18.128,5.887-27.734,5.912-10.106.081-19.766-3.229-29.112-6.377a143.9,143.9,0,0,0-17.993-5.2A69.359,69.359,0,0,0,2.348,11.2,1.6,1.6,0,1,1,.853,8.377,72.589,72.589,0,0,1,48.545,1.335a146.04,146.04,0,0,1,18.4,5.311c9.479,3.192,18.437,6.208,27.968,6.208h.115c9.1-.023,17.676-2.806,26.753-5.755,6.4-2.077,13.011-4.225,19.776-5.283a64.817,64.817,0,0,1,29.938,2.391A127.676,127.676,0,0,1,187.4,11.025a137.478,137.478,0,0,0,14.148,6.2c5.591,1.961,19.7,5.71,29.9-1.819a1.6,1.6,0,0,1,1.9,2.575c-4.617,3.406-10.53,5.13-17.155,5.13" transform="translate(0 0)" fill="#fff"/>
      <path id="Path_8" data-name="Path 8" d="M6.667,26.283a2.037,2.037,0,0,0-.455-.208c-.042,0-.083-.041-.167-.165a.4.4,0,0,0-.29-.206,2.682,2.682,0,0,1-.5-1.782,8.349,8.349,0,0,1,.456-3.067A2.1,2.1,0,0,1,5.88,20.4l.208-.538a4.391,4.391,0,0,1,.041-.456,2.923,2.923,0,0,0,.5-1.2,5.307,5.307,0,0,1,.249-.746c.083-.332-.165-.455-.622-.414-.083,0-.124,0-.165-.041a1.754,1.754,0,0,0-.787.041H4.968a1.738,1.738,0,0,1-.663,0c-.083,0-.165-.124-.165-.291-.042-.123-.083-.082.041-.123l.082-.042a1.986,1.986,0,0,1,1.16-.206,2.114,2.114,0,0,0,.829-.042,1.391,1.391,0,0,1,.579-.082.781.781,0,0,0,.705-.622,1.052,1.052,0,0,0,.249-.705.661.661,0,0,1,.124-.538c.208-.249.249-.373.208-.579l.62-1.368c.126-.332.29-.373.54-.165l.165.165a.372.372,0,0,1,.124.29v.373a1.044,1.044,0,0,1-.041.414,6.323,6.323,0,0,0-.291.954,4.576,4.576,0,0,1-.29.952l-.082.124c-.208.29-.25.456,0,.579a1.965,1.965,0,0,0,.993-.041,8.588,8.588,0,0,1,3.066-.206.25.25,0,0,1,.165.041l.083.124c.083.041.042.041.042.041a.616.616,0,0,1-.126.291,1.213,1.213,0,0,1-.373.082c-.247,0-.455.041-.62.041a6.756,6.756,0,0,1-.995.083.607.607,0,0,0-.291.042h-.082c-.332,0-.622.041-.87.041a5.083,5.083,0,0,1-.829.041c-.579.041-.745.165-.828.622a2.281,2.281,0,0,1-.331.705A1.653,1.653,0,0,0,7.5,19.157a.75.75,0,0,1-.167.332c-.082.124-.124.249-.165.29a7.338,7.338,0,0,0-.952,4.764c0,.249.082.332.373.663a2.5,2.5,0,0,0,2.858.581,5.775,5.775,0,0,0,2.237-1.16.986.986,0,0,1,.5-.373A1.47,1.47,0,0,0,12.715,24a4.821,4.821,0,0,0,.995-.828c.124-.124.208-.249.456-.54a3.669,3.669,0,0,1,.7-.828c.083-.041.124-.082.249,0l.124.124c.167.165.124.249.124.208-.041.123-.083.123-.124.249a1.669,1.669,0,0,1-.29.538,4.071,4.071,0,0,0-.746.745c-.208.25-.456.54-.622.705a6.987,6.987,0,0,1-1.491,1.036c-.208.083-.456.249-.705.373a7.143,7.143,0,0,1-1.823.787,3.48,3.48,0,0,1-2.9-.29" transform="translate(1.501 4.451)" fill="#fff"/>
      <path id="Path_9" data-name="Path 9" d="M25.184,22.518a2.033,2.033,0,0,1-.663,1.077,1.176,1.176,0,0,1-.332.29,3.166,3.166,0,0,0-.746.995,2.272,2.272,0,0,1-.538.456,4.611,4.611,0,0,0-.622.5,8.555,8.555,0,0,1-1.409.995,1.693,1.693,0,0,1-1.906.083,3.62,3.62,0,0,1-.579-.29,2.966,2.966,0,0,1-.954-3.274l.373-1.036v-.041a1.183,1.183,0,0,0-.124-.87c-.082-.249-.538-.332-.745-.206A7.2,7.2,0,0,0,15.2,22.6c-.167.249-.29.415-.622.829-.622.828-1.284,1.7-1.782,2.528a8.83,8.83,0,0,0-.5.787,2.233,2.233,0,0,0-.167.249.67.67,0,0,1-.87.29.475.475,0,0,1-.249-.5l.332-1.2a10.824,10.824,0,0,1,.622-2.071,2.174,2.174,0,0,0,.082-.456,2.8,2.8,0,0,1,.456-1.492l.083-.082c.124-.249.206-.415.124-.538a1.024,1.024,0,0,1,.165-.87,2.5,2.5,0,0,1,.165-.332l.124-.331a1.4,1.4,0,0,0,.249-.87c0-.124.083-.249.249-.456,0-.041.041-.082.083-.165.123-.167.165-.249.165-.332a2.82,2.82,0,0,1,.29-1.325,4.336,4.336,0,0,0,.291-.87,7.626,7.626,0,0,1,.331-1.16,11.564,11.564,0,0,0,.332-1.119,3.844,3.844,0,0,1,.5-1.409,2.451,2.451,0,0,0,.208-.5.369.369,0,0,1,.5-.165c.165.042.208.124.165.249a3.01,3.01,0,0,1-.124,2.071c-.249.664-.414,1.2-.579,1.782-.124.291-.208.622-.332.954-.041.206-.5,1.366-.579,1.533a1.223,1.223,0,0,1-.167.331,2.256,2.256,0,0,0-.372,1.368,1.183,1.183,0,0,0-.373.829,3.313,3.313,0,0,1-.415.952,2.36,2.36,0,0,0-.29,1.409.609.609,0,0,0,.083.165c.124.083.455.083.414.124a15.243,15.243,0,0,0,1.242-1.2,7.264,7.264,0,0,0,.581-.54,2.847,2.847,0,0,1,1.409-.869,1.337,1.337,0,0,1,1.2.165c.167.083.208.208.25.414l.123.663a2.9,2.9,0,0,1-.247,1.327,5.47,5.47,0,0,0-.083,1.284V25c.331.87.7,1.616,2.03,1.036a4.128,4.128,0,0,0,.5-.208A3.394,3.394,0,0,0,21.869,25a7.6,7.6,0,0,1,.663-.579c.622-.415.995-.581,1.327-1.284a4.248,4.248,0,0,1,.62-.829.42.42,0,0,1,.581-.165.355.355,0,0,1,.124.373" transform="translate(4.032 4.032)" fill="#fff"/>
      <path id="Path_10" data-name="Path 10" d="M21.025,23.6a2.714,2.714,0,0,1-.332-1.657c.041-.29.083-.5.124-.911a3.939,3.939,0,0,1,.332-1.533,3.257,3.257,0,0,1,.206-.538,2.814,2.814,0,0,1,.208-.538,3.653,3.653,0,0,1,.952-1.409,2.275,2.275,0,0,1,1.741-.705.931.931,0,0,1,.7.332c.456.456.54.829.249,1.284a2.69,2.69,0,0,0-.249.954,3.2,3.2,0,0,1-1.45,2.112,2.955,2.955,0,0,1-.622.29c-.993.414-1.242.208-.993,1.823a1.908,1.908,0,0,0,1.118,1.078,2.938,2.938,0,0,0,2.817,0l.414-.165a4.835,4.835,0,0,1,.705-.25,1.887,1.887,0,0,0,.414-.206c.332-.249.538-.414.995-.7a5.738,5.738,0,0,0,1.616-1.327l.62-.787a3.691,3.691,0,0,1,.54-.581c.123-.082.206-.082.372.083.083,0,.124.208.042.414a.662.662,0,0,0-.124.249c-.083.208-.124.332-.167.332a7.455,7.455,0,0,1-.746.87,6.217,6.217,0,0,1-.537.579,4.184,4.184,0,0,1-1.533,1.2,2.819,2.819,0,0,0-.913.54,5.876,5.876,0,0,1-2.983.869h-.208a3.706,3.706,0,0,1-3.313-1.7M22.6,20.619a1.735,1.735,0,0,0,.995-.952,2.48,2.48,0,0,1,.29-.581,1.335,1.335,0,0,0,.414-.911v-.208c0-.455-.165-.746-.5-.746a.587.587,0,0,0-.581.25c-.124.082-.124.123-.124.123a2.056,2.056,0,0,0-.581.787c-.082.167-.041.126-.082.167a2.187,2.187,0,0,0-.373,1.119,3.949,3.949,0,0,1-.165.663.714.714,0,0,0,.041.29c0,.208.538.124.663,0" transform="translate(7.569 5.972)" fill="#fff"/>
      <path id="Path_11" data-name="Path 11" d="M26.1,27.942a1.6,1.6,0,0,0-1.6,1.6V42.486A2,2,0,0,1,22.5,44.481H10.593A2,2,0,0,1,8.6,42.486V29.542a1.6,1.6,0,1,0-3.2,0V63.076a1.6,1.6,0,0,0,3.2,0v-13.4a2,2,0,0,1,1.995-1.995H22.5A2,2,0,0,1,24.5,49.674v13.4a1.6,1.6,0,0,0,3.2,0V29.542a1.6,1.6,0,0,0-1.6-1.6" transform="translate(1.977 10.235)" fill="#fff"/>
      <path id="Path_12" data-name="Path 12" d="M35.008,31.142H49.532a1.6,1.6,0,1,0,0-3.2H31.619A1.655,1.655,0,0,0,29.964,29.6V63.022a1.654,1.654,0,0,0,1.655,1.655H49.532a1.6,1.6,0,1,0,0-3.2H35.008a1.845,1.845,0,0,1-1.844-1.846V48.714a1.845,1.845,0,0,1,1.844-1.846H49.532a1.6,1.6,0,1,0,0-3.2H35.008a1.845,1.845,0,0,1-1.844-1.846V32.986a1.845,1.845,0,0,1,1.844-1.845" transform="translate(10.976 10.235)" fill="#fff"/>
      <path id="Path_13" data-name="Path 13" d="M144.094,28.095a1.6,1.6,0,0,0-1.6,1.6V53.937a.915.915,0,0,1-1.705.462L125.8,28.735a1.45,1.45,0,0,0-.128-.145,1.489,1.489,0,0,0-.219-.245,1.464,1.464,0,0,0-.25-.169,1.253,1.253,0,0,0-.592-.2,1.5,1.5,0,0,0-.193-.038c-.034,0-.064.016-.1.019a1.529,1.529,0,0,0-.309.063,1.557,1.557,0,0,0-.306.105c-.03.015-.063.014-.093.031a1.362,1.362,0,0,0-.141.126,1.28,1.28,0,0,0-.417.469,1.51,1.51,0,0,0-.133.276,1.552,1.552,0,0,0-.064.317,1.5,1.5,0,0,0-.038.193V63.077a1.6,1.6,0,1,0,3.2,0V38.834a.916.916,0,0,1,1.706-.462l14.988,25.663a1.64,1.64,0,0,0,.23.3c.011.011.016.023.027.034a1.587,1.587,0,0,0,.448.3c.041.019.082.034.126.051a1.574,1.574,0,0,0,.548.111h0a1.582,1.582,0,0,0,.545-.109c.049-.018.094-.037.141-.059s.081-.027.119-.051a1.368,1.368,0,0,0,.142-.126,1.61,1.61,0,0,0,.25-.223,1.489,1.489,0,0,0,.165-.246,1.426,1.426,0,0,0,.133-.276,1.553,1.553,0,0,0,.064-.317,1.505,1.505,0,0,0,.04-.193V29.695a1.6,1.6,0,0,0-1.6-1.6" transform="translate(44.988 10.235)" fill="#fff"/>
      <path id="Path_14" data-name="Path 14" d="M110.786,29.228a1.575,1.575,0,0,0-1.124-1.1c-.022-.007-.037-.025-.06-.03s-.022,0-.034,0a2.881,2.881,0,0,0-.72,0h-.023c-.015,0-.026.016-.041.02a1.582,1.582,0,0,0-1.144,1.107L98.592,62.763a1.6,1.6,0,1,0,3.091.833l7.025-26.043a.523.523,0,0,1,1.01,0L116.744,63.6a1.6,1.6,0,0,0,3.089-.833Z" transform="translate(36.093 10.283)" fill="#fff"/>
      <path id="Path_15" data-name="Path 15" d="M69.441,47.779a1.936,1.936,0,0,1,.678-2.31,9.6,9.6,0,0,0,3.969-8.5,9.9,9.9,0,0,0-10.005-8.911H55.817c-1.821,0-2.554.741-2.554,1.655V63.187a1.6,1.6,0,1,0,3.2,0V49.225A1.923,1.923,0,0,1,58.385,47.3h5.792a3.132,3.132,0,0,1,1.185.217,2.88,2.88,0,0,1,1.044,1.29L72.591,63.8a1.6,1.6,0,0,0,2.959-1.22ZM64.49,44.1H58.4a1.938,1.938,0,0,1-1.937-1.937V33.19A1.938,1.938,0,0,1,58.4,31.253h5.756a6.653,6.653,0,0,1,6.733,5.83,6.432,6.432,0,0,1-6.4,7.02" transform="translate(19.51 10.276)" fill="#fff"/>
      <path id="Path_16" data-name="Path 16" d="M97.528,61.588H83.038a1.852,1.852,0,0,1-1.853-1.851V29.654a1.6,1.6,0,1,0-3.2,0v33.4c0,.046-.027.086-.027.133a1.6,1.6,0,0,0,1.6,1.6h17.97a1.6,1.6,0,1,0,0-3.2" transform="translate(28.556 10.276)" fill="#fff"/>
      <path id="Path_17" data-name="Path 17" d="M155.083,65.34a18.773,18.773,0,0,1-4.292-.5,3.266,3.266,0,0,1-1.182-5.793,15.756,15.756,0,0,0,0-25.412,3.267,3.267,0,0,1,1.189-5.8,18.994,18.994,0,1,1,4.283,37.5m0-34.8a15.479,15.479,0,0,0-3.551.411l-.023.105a18.956,18.956,0,0,1,0,30.564,11.726,11.726,0,0,0,3.577.515,15.8,15.8,0,0,0,2.977-31.314,16.089,16.089,0,0,0-2.979-.281" transform="translate(54.319 10.016)" fill="#fff"/>
    </g>
  </g>
</svg>
