<svg id="密码-icon" xmlns="http://www.w3.org/2000/svg" xmlns:xlink="http://www.w3.org/1999/xlink" width="30" height="30" viewBox="0 0 30 30">
  <defs>
    <clipPath id="clip-path">
      <rect id="Rectangle_8" data-name="Rectangle 8" width="30" height="30" fill="#b95f46"/>
    </clipPath>
  </defs>
  <g id="Group_6" data-name="Group 6" clip-path="url(#clip-path)">
    <path id="Path_20" data-name="Path 20" d="M15,0A15,15,0,1,0,30,15,15.016,15.016,0,0,0,15,0m0,28.571A13.571,13.571,0,1,1,28.571,15,13.587,13.587,0,0,1,15,28.571" fill="#b95f46"/>
    <path id="Path_21" data-name="Path 21" d="M17.643,8.676H16.214V7.247l-.007-.234a3.572,3.572,0,0,0-3.564-3.337l-.234.007A3.573,3.573,0,0,0,9.071,7.247V8.676H7.643A2.144,2.144,0,0,0,5.5,10.819V19.39a2.144,2.144,0,0,0,2.143,2.143h10a2.144,2.144,0,0,0,2.143-2.143V10.819a2.144,2.144,0,0,0-2.143-2.143M10.5,7.247l.01-.206A2.143,2.143,0,0,1,12.643,5.1l.206.01a2.143,2.143,0,0,1,1.937,2.133V8.676H10.5ZM18.357,19.39a.715.715,0,0,1-.714.714h-10a.715.715,0,0,1-.714-.714V10.819a.715.715,0,0,1,.714-.714h10a.715.715,0,0,1,.714.714Z" transform="translate(2.357 1.575)" fill="#b95f46"/>
    <path id="Path_22" data-name="Path 22" d="M10.929,10.676A1.429,1.429,0,1,0,12.357,12.1a1.429,1.429,0,0,0-1.429-1.429" transform="translate(4.071 4.575)" fill="#b95f46"/>
  </g>
</svg>
