<svg xmlns="http://www.w3.org/2000/svg" xmlns:xlink="http://www.w3.org/1999/xlink" width="488" height="50" viewBox="0 0 488 50">
  <defs>
    <clipPath id="clip-path">
      <rect id="Rectangle_7" data-name="Rectangle 7" width="30" height="30" fill="#b95f46"/>
    </clipPath>
  </defs>
  <g id="用户名_邮箱" data-name="用户名/邮箱" transform="translate(-716 -569.678)">
    <rect id="bg" width="488" height="50" rx="10" transform="translate(716 569.678)" fill="#fff"/>
    <g id="用户-icon" transform="translate(731 580)">
      <g id="Group_4" data-name="Group 4" clip-path="url(#clip-path)">
        <path id="Path_18" data-name="Path 18" d="M15,0A15,15,0,1,0,30,15,15.017,15.017,0,0,0,15,0M6.116,25.236a9.254,9.254,0,0,1,17.769,0,13.5,13.5,0,0,1-17.769,0m18.9-1.107a10.668,10.668,0,0,0-20.026,0,13.572,13.572,0,1,1,20.026,0" transform="translate(0 0)" fill="#b95f46"/>
        <path id="Path_19" data-name="Path 19" d="M12,4a5,5,0,1,0,5,5,5.005,5.005,0,0,0-5-5m0,8.571A3.571,3.571,0,1,1,15.571,9,3.576,3.576,0,0,1,12,12.571" transform="translate(3 1.714)" fill="#b95f46"/>
      </g>
    </g>
    <text id="用户名_邮箱-2" data-name="用户名/邮箱" transform="translate(771 605)" fill="#b95f46" font-size="22" font-family="SourceHanSansCN-Normal, Source Han Sans CN"><tspan x="0" y="0">用户名/邮箱</tspan></text>
  </g>
</svg>
