<svg xmlns="http://www.w3.org/2000/svg" xmlns:xlink="http://www.w3.org/1999/xlink" width="30" height="30" viewBox="0 0 30 30">
  <defs>
    <clipPath id="clip-path">
      <rect id="Rectangle_9" data-name="Rectangle 9" width="30" height="30" fill="#50553c"/>
    </clipPath>
  </defs>
  <g id="Group_8" data-name="Group 8" transform="translate(0 0)">
    <g id="Group_7" data-name="Group 7" transform="translate(0 0.001)" clip-path="url(#clip-path)">
      <path id="Path_23" data-name="Path 23" d="M15,0A15,15,0,1,0,30,15,15.016,15.016,0,0,0,15,0m0,28.571A13.571,13.571,0,1,1,28.571,15,13.587,13.587,0,0,1,15,28.572" transform="translate(0 0)" fill="#50553c"/>
      <path id="Path_24" data-name="Path 24" d="M9.145,10.786a.857.857,0,0,0,.121-.411c0-.534-.457-1.053-.946-.977a.921.921,0,0,0-.731.427l-.474.566a5.184,5.184,0,0,0-.366.411l-.534.564.2-.839.121-.351a6.027,6.027,0,0,1,.29-.7,1.388,1.388,0,0,0,.153-.624.862.862,0,0,0-.886-.9c-.61,0-.884.244-.946.9a2.162,2.162,0,0,0,.29.976,4.294,4.294,0,0,1,.351.809,5.505,5.505,0,0,1,.137.717l-.6-.686a5.99,5.99,0,0,1-.5-.566,2.053,2.053,0,0,0-.611-.564,1.08,1.08,0,0,0-.441-.121H3.712a.867.867,0,0,0-.763.9.8.8,0,0,0,.35.7,4.28,4.28,0,0,0,1.4.351,9.493,9.493,0,0,1,1.053.183l-1.021.244-.854.169c-.779.167-.963.381-.916,1.129a.831.831,0,0,0,.869.7c.413,0,.779-.334,1.221-.946l.381-.519a6.5,6.5,0,0,1,.534-.6l-.2.794a4.376,4.376,0,0,1-.274.793,3.185,3.185,0,0,0-.26.641,1.234,1.234,0,0,0-.091.443.867.867,0,0,0,.946.84A.82.82,0,0,0,6.81,14.8a.959.959,0,0,0,.06-.4,2.377,2.377,0,0,0-.137-.749l-.26-.731c-.044-.169-.121-.534-.213-1.114l.794.886.274.4a4.236,4.236,0,0,0,.457.519.911.911,0,0,0,.6.2.759.759,0,0,0,.839-.731c.016-.566-.183-.824-.624-.947a7.864,7.864,0,0,0-.826-.2l-.777-.153-.687-.184,1.389-.244a2.466,2.466,0,0,0,1.45-.564" transform="translate(1.264 3.405)" fill="#50553c"/>
      <path id="Path_25" data-name="Path 25" d="M14.485,10.786a.857.857,0,0,0,.121-.411c0-.534-.457-1.053-.946-.977a.921.921,0,0,0-.731.427l-.474.566a5.184,5.184,0,0,0-.366.411l-.534.564.2-.839.121-.351a6.027,6.027,0,0,1,.29-.7,1.388,1.388,0,0,0,.153-.624.862.862,0,0,0-.886-.9c-.61,0-.884.244-.946.9a2.162,2.162,0,0,0,.29.976,4.294,4.294,0,0,1,.351.809,5.506,5.506,0,0,1,.137.717l-.6-.686a5.989,5.989,0,0,1-.5-.566,2.053,2.053,0,0,0-.611-.564,1.08,1.08,0,0,0-.441-.121H9.052a.867.867,0,0,0-.763.9.8.8,0,0,0,.35.7,4.28,4.28,0,0,0,1.4.351,9.493,9.493,0,0,1,1.053.183l-1.021.244-.854.169c-.779.167-.963.381-.916,1.129a.831.831,0,0,0,.869.7c.413,0,.779-.334,1.221-.946l.381-.519a6.5,6.5,0,0,1,.534-.6l-.2.794a4.376,4.376,0,0,1-.274.793,3.185,3.185,0,0,0-.26.641,1.234,1.234,0,0,0-.091.443.867.867,0,0,0,.946.84.82.82,0,0,0,.719-.444.959.959,0,0,0,.06-.4,2.377,2.377,0,0,0-.137-.749l-.26-.731c-.044-.169-.121-.534-.213-1.114l.794.886.274.4a4.236,4.236,0,0,0,.457.519.911.911,0,0,0,.6.2.759.759,0,0,0,.839-.731c.016-.566-.183-.824-.624-.947a7.864,7.864,0,0,0-.826-.2l-.777-.153-.687-.184,1.389-.244a2.466,2.466,0,0,0,1.45-.564" transform="translate(3.552 3.405)" fill="#50553c"/>
      <path id="Path_26" data-name="Path 26" d="M19.275,12.128a8.317,8.317,0,0,0-.824-.2l-.779-.153-.687-.183,1.389-.244a2.466,2.466,0,0,0,1.45-.564.845.845,0,0,0,.123-.413c0-.534-.459-1.053-.947-.976a.921.921,0,0,0-.731.427l-.473.564c-.107.107-.229.244-.367.413l-.534.564.2-.84.123-.35a6.028,6.028,0,0,1,.29-.7,1.408,1.408,0,0,0,.153-.626.862.862,0,0,0-.886-.9c-.61,0-.886.244-.946.9a2.162,2.162,0,0,0,.29.977,4.266,4.266,0,0,1,.35.809,5.506,5.506,0,0,1,.137.717l-.594-.686a6.007,6.007,0,0,1-.5-.566,2.033,2.033,0,0,0-.61-.564,1.063,1.063,0,0,0-.443-.121h-.06a.866.866,0,0,0-.764.9.8.8,0,0,0,.351.7,4.307,4.307,0,0,0,1.4.351,9.493,9.493,0,0,1,1.053.183l-1.023.244-.854.169c-.779.167-.961.381-.916,1.129a.833.833,0,0,0,.87.7c.411,0,.779-.336,1.22-.946l.383-.519a6.292,6.292,0,0,1,.534-.6l-.2.794a4.411,4.411,0,0,1-.276.793,3.148,3.148,0,0,0-.259.641,1.2,1.2,0,0,0-.091.443.865.865,0,0,0,.946.839.816.816,0,0,0,.717-.443.937.937,0,0,0,.061-.4,2.363,2.363,0,0,0-.137-.749l-.26-.733c-.046-.167-.121-.534-.213-1.113l.793.884.274.4a4.144,4.144,0,0,0,.459.519.906.906,0,0,0,.594.2.76.76,0,0,0,.84-.733c.014-.564-.183-.824-.626-.946" transform="translate(5.841 3.405)" fill="#50553c"/>
    </g>
  </g>
</svg>
